<svg width="323" height="323" viewBox="0 0 323 323" fill="none" xmlns="http://www.w3.org/2000/svg">
<path d="M259.071 229.942L266.701 238.489L268.099 252.812L259.071 264.637L237.103 276.228L209.74 283.643L173.671 288.053H137.881L108.562 283.643L78.4033 276.228L60.3887 266.042L51.3613 255.544L66.3008 262.725L90.5469 269.866L132.528 274.55L179.582 273.184L222.163 264.637L244.691 252.812L254.558 236.03L252.601 225.532L259.071 229.942ZM235.548 234.879L237.232 243.406L222.52 253.673L193.695 261.675L162.306 263.938H137.13L112.515 257.957L101.771 250.844L132.6 257.957L181.789 256.26L217.147 246.56L228.212 237.708V230.595L235.548 234.879ZM53.623 94.7344V106.242L62.7988 122.963L92.6396 139.122L139.117 150.63H187.309L227.886 146.098L228.756 145.967L260.156 135.633L254.722 139.278L266.308 134.943L269.644 128.665H284.274L299.064 136.279L306.001 148.097L304.805 163.047L293.523 182.161L280.846 199.254L286.507 206.247L302.025 208.058L286.507 212.022L276.501 208.058L270.561 202.228L280.846 182.161L286.507 154.164L280.846 148.097L270.561 154.164L257.405 174.23L240.064 196.16L219.414 217.614L195.495 234.904L164.521 245.176H127.924L93.7197 234.904L66.4922 213.887L46.7988 182.161L38.3477 150.912L35.0781 124.303L37.9658 128.156L38.6758 126.989L32.998 117.79L39.3018 99.3457L62.7988 82.625L53.623 94.7344ZM59.7881 170.758L75.4307 200.315L110.105 222.257L86.6846 196.779L67.1318 170.758L55.9209 151.4L59.7881 170.758ZM225.749 87.332L233.893 94.4541L249.736 111.962V121.87L238.206 131.817L208.01 138.9L215.67 128.515L208.01 117.135L198.898 111.962L195.552 101.06L208.01 91.1523L205.147 101.06L215.67 105.795L225.749 111.962V105.795L215.67 97.2793V87.332L228.611 72.2119L225.749 87.332ZM112.429 59.8398L107.541 75.4443L115.346 73.6924L132.53 59.8398L149.911 51.7998L161.342 53.71H187.552L195.553 50.0479L187.552 61.4326H169.5L161.342 70.707L144.354 75.4443L132.53 89.415L126.145 100.681L128.746 107.885L147.822 120.861L187.552 138.018L158.07 138.894L138.639 135.391L103.561 127.15L79.5967 118.394L66.5898 109.278L62.1758 104.661V93.1172L72.6992 76.5186L81.8438 72.3389L76.7988 80.6582L81.8438 89.415L93.2734 66.3682L109.236 48.8145L126.145 45.1123L112.429 59.8398ZM200.897 75.3359L185.893 78.4551L181.253 75.3359L170.542 78.4551L173.75 73.9443L181.253 69.0977H199.812L208.054 63.8662L200.897 75.3359ZM90.1113 61.7959L78.8428 65.9521L83.04 61.7959L95.5156 45.1123L90.1113 61.7959ZM170.539 32.5205L156.192 38.8369H149.04L139.279 45.1133V38.8369L149.04 32.5205L164.396 28.1914L170.539 18.0215V32.5205Z" fill="white"/>
</svg>
